<svg width="21" height="26" viewBox="0 0 21 26" fill="none" xmlns="http://www.w3.org/2000/svg">
<path d="M20.5599 20.1826C20.1828 21.0536 19.7366 21.8554 19.2195 22.5925C18.5147 23.5974 17.9376 24.293 17.4928 24.6793C16.8034 25.3133 16.0647 25.638 15.2737 25.6565C14.7058 25.6565 14.021 25.4949 13.2239 25.1671C12.4241 24.8409 11.6891 24.6793 11.0171 24.6793C10.3123 24.6793 9.55634 24.8409 8.7478 25.1671C7.93802 25.4949 7.28567 25.6657 6.78691 25.6827C6.02838 25.715 5.27232 25.381 4.51763 24.6793C4.03595 24.2592 3.43347 23.539 2.71172 22.5187C1.93734 21.4291 1.30069 20.1657 0.801927 18.7252C0.267771 17.1694 0 15.6628 0 14.2042C0 12.5334 0.361029 11.0924 1.08416 9.8848C1.65248 8.91483 2.40855 8.14968 3.35483 7.58798C4.30111 7.02627 5.32356 6.74004 6.42465 6.72172C7.02714 6.72172 7.81721 6.90808 8.79904 7.27435C9.7781 7.64184 10.4067 7.8282 10.6824 7.8282C10.8884 7.8282 11.5868 7.61029 12.7707 7.17586C13.8902 6.77297 14.8351 6.60615 15.6092 6.67186C17.7067 6.84114 19.2826 7.668 20.3306 9.15767C18.4546 10.2943 17.5267 11.8863 17.5451 13.9286C17.5621 15.5194 18.1392 16.8431 19.2733 17.8942C19.7873 18.3821 20.3614 18.7591 21 19.0269C20.8615 19.4285 20.7153 19.8133 20.5599 20.1826ZM15.7492 1.25243C15.7492 2.49927 15.2937 3.66344 14.3858 4.74099C13.29 6.02198 11.9647 6.7622 10.5275 6.64539C10.5092 6.49581 10.4986 6.33838 10.4986 6.17295C10.4986 4.97598 11.0197 3.69499 11.945 2.6476C12.407 2.1173 12.9946 1.67635 13.7071 1.3246C14.4181 0.978099 15.0906 0.786477 15.7231 0.753662C15.7415 0.920345 15.7492 1.08704 15.7492 1.25241V1.25243Z" fill="#B3B3B3"/>
</svg>
